<svg width="1200" height="1200" viewBox="0 0 1200 1200" fill="none" xmlns="http://www.w3.org/2000/svg">
<path d="M979.387 250L869.367 312.041V364.983L599.693 518.019V643.756L695.651 691.735V586.678L979.387 422.062V250Z" fill="#A3F3B8"/>
<path d="M599.693 949L695.651 895.231V796.792L783.336 747.159V658.646L979.387 546.144V422.062L695.651 586.678V691.735L599.693 747.159V949Z" fill="#62D3A5"/>
<path d="M599.693 747.159L695.651 691.735L599.693 643.756V747.159Z" fill="#A3F3B8"/>
<path d="M599.693 747.159L695.651 691.735L599.693 643.756V747.159Z" fill="#8BEAA4"/>
<path d="M503.736 586.678L220 422.062V250L330.02 312.041V364.983L599.693 518.019V643.756L503.736 691.735V586.678Z" fill="#34B889"/>
<path d="M599.693 747.159V949L503.736 895.231V796.792L416.051 747.159V658.646L220 546.144V422.062L503.736 586.678V691.735L599.693 747.159Z" fill="#34B889"/>
<path d="M599.693 747.159V949L503.736 895.231V796.792L416.051 747.159V658.646L220 546.144V422.062L503.736 586.678V691.735L599.693 747.159Z" fill="#359D7C"/>
<path d="M599.693 643.756V747.159L503.736 691.735L599.693 643.756Z" fill="#4AC596"/>
</svg>
