<svg width="500" height="150" viewBox="0 0 500 150" fill="none" xmlns="http://www.w3.org/2000/svg">
<path d="M173 17L154.6 27.3758V36.2298L109.5 61.8235V82.8519L125.548 90.8758V73.3061L173 45.7756V17Z" fill="#A3F3B8"/>
<path d="M109.5 133.901L125.548 124.908V108.446L140.212 100.145V85.342L173 66.5272V45.7756L125.548 73.3061V90.8758L109.5 100.145V133.901Z" fill="#62D3A5"/>
<path d="M109.5 100.145L125.548 90.8758L109.5 82.8519V100.145Z" fill="#A3F3B8"/>
<path d="M109.5 100.145L125.548 90.8758L109.5 82.8519V100.145Z" fill="#8BEAA4"/>
<path d="M93.4521 73.3061L46 45.7756V17L64.3998 27.3758V36.2298L109.5 61.8235V82.8519L93.4521 90.8758V73.3061Z" fill="#34B889"/>
<path d="M109.5 100.145V133.901L93.4521 124.908V108.446L78.7876 100.145V85.342L46 66.5272V45.7756L93.4521 73.3061V90.8758L109.5 100.145Z" fill="#34B889"/>
<path d="M109.5 100.145V133.901L93.4521 124.908V108.446L78.7876 100.145V85.342L46 66.5272V45.7756L93.4521 73.3061V90.8758L109.5 100.145Z" fill="#359D7C"/>
<path d="M109.5 82.8519V100.145L93.4521 90.8758L109.5 82.8519Z" fill="#4AC596"/>
<path d="M242.462 103.12C235.422 103.12 229.822 101.2 225.662 97.36C221.502 93.4667 219.422 87.92 219.422 80.72V67.28C219.422 60.08 221.502 54.56 225.662 50.72C229.822 46.8267 235.422 44.88 242.462 44.88C249.502 44.88 255.102 46.8267 259.262 50.72C263.422 54.56 265.502 60.08 265.502 67.28V80.72C265.502 87.92 263.422 93.4667 259.262 97.36C255.102 101.2 249.502 103.12 242.462 103.12ZM242.462 93.68C246.409 93.68 249.475 92.5333 251.662 90.24C253.849 87.9467 254.942 84.88 254.942 81.04V66.96C254.942 63.12 253.849 60.0533 251.662 57.76C249.475 55.4667 246.409 54.32 242.462 54.32C238.569 54.32 235.502 55.4667 233.262 57.76C231.075 60.0533 229.982 63.12 229.982 66.96V81.04C229.982 84.88 231.075 87.9467 233.262 90.24C235.502 92.5333 238.569 93.68 242.462 93.68ZM275.564 102L289.964 82L275.724 62.32H287.404L296.444 75.52H297.884L306.924 62.32H318.604L304.364 82L318.764 102H306.924L297.884 88.64H296.444L287.404 102H275.564Z" fill="#359D7C"/>
<path d="M354.268 103.12C350.695 103.12 347.948 102.507 346.028 101.28C344.108 100.053 342.695 98.6933 341.788 97.2H340.348V102H330.428V46H340.508V66.88H341.948C342.535 65.92 343.308 65.0133 344.268 64.16C345.281 63.3067 346.588 62.6133 348.188 62.08C349.841 61.4933 351.868 61.2 354.268 61.2C357.468 61.2 360.428 62 363.148 63.6C365.868 65.1467 368.055 67.44 369.708 70.48C371.361 73.52 372.188 77.2 372.188 81.52V82.8C372.188 87.12 371.361 90.8 369.708 93.84C368.055 96.88 365.868 99.2 363.148 100.8C360.428 102.347 357.468 103.12 354.268 103.12ZM351.228 94.32C354.321 94.32 356.908 93.3333 358.988 91.36C361.068 89.3333 362.108 86.4 362.108 82.56V81.76C362.108 77.92 361.068 75.0133 358.988 73.04C356.961 71.0133 354.375 70 351.228 70C348.135 70 345.548 71.0133 343.468 73.04C341.388 75.0133 340.348 77.92 340.348 81.76V82.56C340.348 86.4 341.388 89.3333 343.468 91.36C345.548 93.3333 348.135 94.32 351.228 94.32ZM385.444 102V62.32H395.524V102H385.444ZM390.484 57.68C388.67 57.68 387.124 57.0933 385.844 55.92C384.617 54.7467 384.004 53.2 384.004 51.28C384.004 49.36 384.617 47.8133 385.844 46.64C387.124 45.4667 388.67 44.88 390.484 44.88C392.35 44.88 393.897 45.4667 395.124 46.64C396.35 47.8133 396.964 49.36 396.964 51.28C396.964 53.2 396.35 54.7467 395.124 55.92C393.897 57.0933 392.35 57.68 390.484 57.68ZM425.894 102C423.28 102 421.147 101.2 419.494 99.6C417.894 97.9467 417.094 95.76 417.094 93.04V70.64H407.174V62.32H417.094V50H427.174V62.32H438.054V70.64H427.174V91.28C427.174 92.88 427.92 93.68 429.414 93.68H437.094V102H425.894Z" fill="#A3F3B8"/>
</svg>
